<svg width="177" height="45" viewBox="0 0 177 45" fill="none" xmlns="http://www.w3.org/2000/svg">
<path d="M10.4526 27.7246H8.55847V18.6169H1.99353V27.7246H0.0993884V16.8903H10.4526V27.7246Z" fill="#333333"/>
<path d="M15.6615 32.1489H13.7674V16.8903H15.6615V18.509H15.7476C15.8768 18.3075 16.0812 18.0917 16.3611 17.8615C16.6122 17.6601 16.8812 17.4766 17.1682 17.3112C17.4767 17.1385 17.8785 16.991 18.3736 16.8687C18.8758 16.7392 19.3816 16.6745 19.8911 16.6745C21.5197 16.6745 22.8829 17.1925 23.9807 18.2284C25.0713 19.2787 25.6165 20.6384 25.6165 22.3074C25.6165 23.9909 25.0713 25.3505 23.9807 26.3865C22.8829 27.4224 21.5197 27.9404 19.8911 27.9404C18.7718 27.9404 17.8606 27.7246 17.1575 27.2929C16.5404 26.9116 16.1207 26.5843 15.8983 26.3109L15.7476 26.1059H15.6615V32.1489ZM22.5924 25.0808C23.317 24.3542 23.6793 23.4297 23.6793 22.3074C23.6793 21.1996 23.317 20.2751 22.5924 19.5341C21.8534 18.8075 20.8776 18.4442 19.665 18.4442C18.4453 18.4442 17.4731 18.8075 16.7485 19.5341C16.0238 20.2751 15.6615 21.1996 15.6615 22.3074C15.6615 23.4585 16.0346 24.3901 16.7808 25.1023C17.5198 25.8217 18.4812 26.1814 19.665 26.1814C20.8848 26.1814 21.8605 25.8145 22.5924 25.0808Z" fill="#333333"/>
<path d="M29.7277 26.3973C28.6084 25.3685 28.0488 24.0052 28.0488 22.3074C28.0488 20.6168 28.6084 19.2536 29.7277 18.2176C30.8398 17.1889 32.2568 16.6745 33.9788 16.6745C35.6864 16.6745 37.1034 17.1889 38.2298 18.2176C39.3419 19.2536 39.898 20.6168 39.898 22.3074C39.898 24.0052 39.3419 25.3685 38.2298 26.3973C37.1034 27.426 35.6864 27.9404 33.9788 27.9404C32.2568 27.9404 30.8398 27.426 29.7277 26.3973ZM36.8738 25.0915C37.5984 24.3649 37.9608 23.4369 37.9608 22.3074C37.9608 21.178 37.5984 20.2499 36.8738 19.5233C36.1491 18.8039 35.1841 18.4442 33.9788 18.4442C32.7662 18.4442 31.8012 18.8039 31.0837 19.5233C30.3519 20.2427 29.986 21.1708 29.986 22.3074C29.986 23.4441 30.3519 24.3721 31.0837 25.0915C31.8084 25.8181 32.7734 26.1814 33.9788 26.1814C35.1698 26.1814 36.1348 25.8181 36.8738 25.0915Z" fill="#333333"/>
<path d="M79.6965 27.7246H77.1889L71.1083 22.329V27.7246H69.2142V16.8903H71.1083V22.1779L76.8123 16.8903H79.2876L73.5083 22.2211L79.6965 27.7246Z" fill="#333333"/>
<path d="M83.2481 32.1489H81.3539V16.8903H83.2481V18.509H83.3342C83.4633 18.3075 83.6678 18.0917 83.9476 17.8615C84.1987 17.6601 84.4678 17.4766 84.7548 17.3112C85.0633 17.1385 85.4651 16.991 85.9601 16.8687C86.4624 16.7392 86.9682 16.6745 87.4776 16.6745C89.1063 16.6745 90.4695 17.1925 91.5672 18.2284C92.6578 19.2787 93.2031 20.6384 93.2031 22.3074C93.2031 23.9909 92.6578 25.3505 91.5672 26.3865C90.4695 27.4224 89.1063 27.9404 87.4776 27.9404C86.3583 27.9404 85.4471 27.7246 84.744 27.2929C84.127 26.9116 83.7072 26.5843 83.4848 26.3109L83.3342 26.1059H83.2481V32.1489ZM90.1789 25.0808C90.9036 24.3542 91.2659 23.4297 91.2659 22.3074C91.2659 21.1996 90.9036 20.2751 90.1789 19.5341C89.4399 18.8075 88.4641 18.4442 87.2516 18.4442C86.0319 18.4442 85.0597 18.8075 84.335 19.5341C83.6104 20.2751 83.2481 21.1996 83.2481 22.3074C83.2481 23.4585 83.6211 24.3901 84.3673 25.1023C85.1063 25.8217 86.0678 26.1814 87.2516 26.1814C88.4713 26.1814 89.4471 25.8145 90.1789 25.0808Z" fill="#333333"/>
<path d="M95.6353 24.6923C95.6353 23.5844 96.1053 22.7643 97.0452 22.2319C97.9779 21.7067 99.1761 21.4442 100.64 21.4442C101.386 21.4442 102.075 21.5341 102.706 21.7139C103.366 21.901 103.829 22.0772 104.094 22.2427L104.514 22.5125V20.8075C104.514 20.0737 104.245 19.4982 103.707 19.0809C103.169 18.6565 102.358 18.4442 101.275 18.4442C99.1151 18.4442 98.0353 19.0341 98.0353 20.214H96.1412C96.1483 19.0198 96.6326 18.1313 97.5941 17.5486C98.5483 16.9659 99.7752 16.6745 101.275 16.6745C102.781 16.6745 104.012 17.027 104.966 17.732C105.92 18.4442 106.401 19.4694 106.408 20.8075V24.7462C106.408 25.293 106.48 25.6743 106.624 25.8901C106.767 26.0987 107.004 26.203 107.334 26.203C107.621 26.203 107.811 26.1635 107.904 26.0843L107.947 26.0627V27.7677C107.725 27.8828 107.402 27.9404 106.979 27.9404C106.261 27.9404 105.73 27.7857 105.386 27.4764C105.113 27.2462 104.912 27.0052 104.783 26.7534L104.729 26.6239H104.643C104.464 26.8037 104.281 26.9548 104.094 27.0771C103.872 27.2282 103.628 27.3613 103.363 27.4764C102.659 27.7857 101.802 27.9404 100.79 27.9404C99.2622 27.9404 98.021 27.6778 97.0667 27.1526C96.1125 26.6347 95.6353 25.8145 95.6353 24.6923ZM101.07 23.2139C98.7384 23.2139 97.5725 23.7067 97.5725 24.6923C97.5725 25.6851 98.7384 26.1814 101.07 26.1814C101.759 26.1814 102.387 26.1059 102.954 25.9548C103.513 25.8181 103.897 25.6887 104.105 25.5664C104.299 25.4656 104.435 25.3757 104.514 25.2966V24.0556C104.435 23.9765 104.299 23.8865 104.105 23.7858C103.861 23.6707 103.481 23.5484 102.964 23.4189C102.412 23.2822 101.781 23.2139 101.07 23.2139Z" fill="#333333"/>
<path d="M111.284 26.3757C110.164 25.3469 109.605 23.9837 109.605 22.2859C109.605 20.5881 110.164 19.2284 111.284 18.2068C112.388 17.1853 113.805 16.6745 115.535 16.6745C116.518 16.6745 117.396 16.84 118.171 17.1709C118.968 17.509 119.57 17.9155 119.979 18.3903C120.833 19.3759 121.26 20.2787 121.26 21.0988H119.301C119.23 20.7895 119.108 20.4837 118.935 20.1816C118.756 19.8723 118.548 19.6025 118.311 19.3723C118.039 19.1133 117.655 18.8939 117.16 18.714C116.672 18.5342 116.13 18.4442 115.535 18.4442C114.322 18.4442 113.357 18.8039 112.64 19.5233C111.908 20.2427 111.542 21.1636 111.542 22.2859C111.542 23.4081 111.908 24.3326 112.64 25.0592C113.364 25.793 114.329 26.1599 115.535 26.1599C116.137 26.1599 116.683 26.0699 117.17 25.8901C117.666 25.7102 118.046 25.4836 118.311 25.2102C118.806 24.6995 119.115 24.2247 119.237 23.7858L119.301 23.5053H121.26C121.26 24.311 120.833 25.2066 119.979 26.1922C119.556 26.6814 118.953 27.0915 118.171 27.4224C117.396 27.7533 116.518 27.9188 115.535 27.9188C113.813 27.9188 112.396 27.4044 111.284 26.3757Z" fill="#333333"/>
<path d="M134.681 27.7246H132.776V19.0593H132.733L126.523 27.7246H124.123V16.8903H126.017V25.5556H126.06L132.27 16.8903H134.681V27.7246Z" fill="#333333"/>
<path d="M147.638 19.7931C147.638 20.1456 147.581 20.4694 147.466 20.7643C147.351 21.0521 147.208 21.2679 147.036 21.4118C146.655 21.7211 146.332 21.8938 146.067 21.9298L145.895 21.9837V22.0916C146.06 22.0916 146.343 22.1636 146.745 22.3074C147.018 22.4082 147.269 22.5448 147.498 22.7175C147.735 22.9117 147.932 23.1815 148.09 23.5268C148.255 23.865 148.338 24.2462 148.338 24.6707C148.338 25.7066 147.975 26.4764 147.251 26.98C146.526 27.4764 145.421 27.7246 143.936 27.7246H137.985V16.8903H143.473C144.786 16.8903 145.809 17.1385 146.54 17.6349C147.272 18.1313 147.638 18.8507 147.638 19.7931ZM146.401 24.5412C146.401 23.5412 145.579 23.0412 143.936 23.0412H139.879V26.0627H143.936C145.579 26.0627 146.401 25.5556 146.401 24.5412ZM145.69 19.9874C145.69 19.0305 144.951 18.5521 143.473 18.5521H139.879V21.4657H143.689C144.341 21.4514 144.836 21.3111 145.174 21.0449C145.518 20.7787 145.69 20.4262 145.69 19.9874Z" fill="#333333"/>
<path d="M152.438 26.3973C151.319 25.3685 150.759 24.0052 150.759 22.3074C150.759 20.6168 151.319 19.2536 152.438 18.2176C153.55 17.1889 154.967 16.6745 156.689 16.6745C158.397 16.6745 159.814 17.1889 160.94 18.2176C162.052 19.2536 162.608 20.6168 162.608 22.3074C162.608 24.0052 162.052 25.3685 160.94 26.3973C159.814 27.426 158.397 27.9404 156.689 27.9404C154.967 27.9404 153.55 27.426 152.438 26.3973ZM159.584 25.0915C160.309 24.3649 160.671 23.4369 160.671 22.3074C160.671 21.178 160.309 20.2499 159.584 19.5233C158.86 18.8039 157.895 18.4442 156.689 18.4442C155.477 18.4442 154.512 18.8039 153.794 19.5233C153.062 20.2427 152.696 21.1708 152.696 22.3074C152.696 23.4441 153.062 24.3721 153.794 25.0915C154.519 25.8181 155.484 26.1814 156.689 26.1814C157.88 26.1814 158.845 25.8181 159.584 25.0915Z" fill="#333333"/>
<path d="M176.901 22.3074L176.836 23.2139H167.075C167.075 23.8326 167.441 24.4801 168.172 25.1563C168.897 25.8397 169.869 26.1814 171.089 26.1814C171.986 26.1814 172.721 26.0124 173.295 25.6743C173.769 25.3865 174.099 25.1275 174.285 24.8973L174.372 24.7462H176.599C176.556 24.8541 176.51 24.9656 176.459 25.0808C176.366 25.2462 176.19 25.5016 175.932 25.8469C175.652 26.2138 175.326 26.5411 174.953 26.8289C174.594 27.1095 174.067 27.3649 173.371 27.5951C172.711 27.8253 171.95 27.9404 171.089 27.9404C169.303 27.9404 167.853 27.4296 166.741 26.4081C165.615 25.3865 165.051 24.0196 165.051 22.3074C165.051 20.6096 165.611 19.2464 166.73 18.2176C167.842 17.1889 169.259 16.6745 170.981 16.6745C172.689 16.6745 174.106 17.1889 175.232 18.2176C176.345 19.2464 176.901 20.6096 176.901 22.3074ZM173.844 19.4694C173.127 18.786 172.172 18.4442 170.981 18.4442C169.776 18.4442 168.822 18.786 168.119 19.4694C167.408 20.1528 167.053 20.8255 167.053 21.4873H174.899C174.899 20.8255 174.547 20.1528 173.844 19.4694Z" fill="#333333"/>
<path fill-rule="evenodd" clip-rule="evenodd" d="M54.41 24.3573L53.4754 25.7086C53.4754 25.7086 53.2677 25.1889 53.06 24.7731C52.8523 24.3573 52.5408 23.9415 52.2293 23.4217C51.9178 22.902 51.5024 22.1743 51.1909 21.6546C50.8794 21.1348 50.6717 20.719 50.5679 20.1993C50.464 19.6795 50.3602 18.8479 50.2563 17.8084C50.1525 16.7689 50.0487 15.4175 49.9448 14.1701C49.841 12.9227 49.6333 11.6753 49.3218 10.22C49.1141 8.76473 48.6987 7.20548 48.3872 5.85413C48.0757 4.50278 47.7642 3.35933 47.3488 2.52773C47.0373 1.69612 46.6219 0.968473 46.3104 0.552672C45.9989 0.136872 45.7912 0.0329214 45.5835 0.136872C45.3759 0.136872 45.272 0.344772 45.1682 0.760572C45.0643 1.17637 44.9605 1.90402 44.9605 2.83958C44.9605 3.77513 44.9605 5.12648 45.1682 6.47783C45.3759 7.82918 45.6874 9.38844 45.9989 10.9477C46.4143 12.5069 46.8296 13.9622 47.3488 15.2096C47.868 16.457 48.2834 17.4965 48.5949 18.1202C48.8026 18.7439 48.8026 18.8479 48.8026 20.3032C48.8026 21.7585 48.8026 24.6691 48.6987 26.956C48.5949 29.2429 48.4911 30.8022 48.1795 32.5693C47.868 34.3365 47.3488 36.3115 46.9335 37.8708C46.4143 39.534 45.9989 40.8853 45.6874 41.613C45.4797 42.3406 45.4797 42.5485 45.6874 42.9643C45.8951 43.3801 46.3104 43.8999 46.5181 44.1078C46.7258 44.4196 46.8296 44.4196 47.1411 43.588C47.4527 42.8604 48.0757 41.3011 48.5949 39.8458C49.2179 38.3905 49.7371 36.9352 50.464 35.4799C51.1909 34.0246 51.9178 32.4654 52.6447 31.3219C53.3715 30.0745 53.8908 29.139 54.2023 28.7232C54.5138 28.3074 54.6176 28.3074 54.7215 28.4113C54.8253 28.5153 54.9292 28.7232 55.2407 29.139C55.5522 29.5548 55.9676 30.0745 56.5906 30.6982C57.2136 31.3219 57.8367 32.0496 59.0828 33.0891C60.3288 34.1286 62.0941 35.5839 63.6517 36.6234C65.2093 37.6629 66.4554 38.3905 68.013 39.0142C69.5706 39.6379 71.5436 40.2616 73.5165 40.6774C75.4895 41.0932 77.5663 41.1972 79.2278 41.1972C80.8892 41.1972 82.0314 40.9893 83.1737 40.6774C84.3159 40.3656 85.562 40.0537 86.9119 39.3261C88.2619 38.7024 89.6118 37.5589 91.1694 36.7273C108.926 27.1639 107.368 32.3614 126.475 38.9103C134.678 41.7169 142.882 43.3801 151.397 41.8209C153.162 41.509 153.266 41.4051 153.266 41.3011C153.266 41.1972 153.266 41.0932 153.162 40.7814C153.058 40.4695 152.747 39.9498 152.643 39.6379C152.435 39.3261 152.435 39.2221 149.424 39.43C146.516 39.7419 144.647 40.0537 139.455 39.534C134.159 39.1182 129.486 37.5589 125.333 35.5839C92.4155 20.719 100.1 37.351 77.2548 38.4945C75.178 38.5984 73.5166 38.4945 71.4398 37.9747C69.3629 37.455 66.9746 36.5194 65.1055 35.5839C63.2364 34.6483 61.6788 33.5049 60.3288 32.3614C58.8751 31.218 57.5252 29.9706 56.7983 29.139C55.9676 28.3074 55.656 27.9955 55.5522 27.6837C55.4484 27.4758 55.4484 27.2679 56.1752 26.0205C57.006 24.7731 58.5636 22.4862 60.6404 20.0953C62.6133 17.7045 65.1055 15.2096 67.1823 13.3385C69.2591 11.4674 71.0244 10.1161 72.8935 8.76473C74.6588 7.51733 79.747 3.98303 80.5777 3.25538C81.4084 2.52773 81.2007 2.31982 80.8892 1.90402C80.5777 1.48822 80.0585 0.968473 79.8508 0.760572C79.5393 0.552672 79.4354 0.656622 78.1894 1.48822C76.9433 2.31982 71.4397 6.26993 69.2591 8.03708C67.0785 9.80424 65.1055 11.6753 63.2364 13.6504C61.3672 15.6254 59.4981 17.6005 57.9405 19.5756C56.3829 21.5506 54.41 24.3573 54.41 24.3573ZM50.464 23.2138C50.464 23.9415 50.464 25.2928 50.464 26.3323C50.464 27.3718 50.464 28.6192 50.464 28.6192L50.4759 30.4871L52.0216 28.0995L52.6447 26.956C52.6447 26.956 52.8524 26.5402 52.7485 26.3323C52.7485 26.3323 51.9178 24.7731 51.7101 24.3573C51.5024 23.9415 50.464 22.3822 50.464 22.3822C50.464 22.3822 50.464 22.4862 50.464 23.2138ZM48.4911 14.482C48.4911 13.8583 48.3872 12.5069 48.2834 11.3635C48.1795 10.22 47.9719 9.28448 47.7642 8.34893C47.5565 7.41338 47.4527 6.58178 47.245 5.85413C47.0373 5.02253 46.8296 4.29488 46.7258 3.98303C46.6219 3.56723 46.5181 3.56723 46.5181 3.87908C46.5181 4.19093 46.5181 4.81463 46.6219 5.85413C46.7258 6.89363 46.8296 8.24498 47.0373 9.38844C47.245 10.5319 47.4527 11.4674 47.6603 12.1951C47.868 12.9227 47.9719 13.4425 48.0757 13.8583C48.1795 14.2741 48.2834 14.5859 48.3872 14.7938C48.4911 15.0017 48.5949 15.1057 48.5949 14.482H48.4911Z" fill="#333333"/>
<path d="M10.4526 27.7246H8.55847V18.6169H1.99353V27.7246H0.0993884V16.8903H10.4526V27.7246Z" stroke="#4C4A5D" stroke-width="0.197857"/>
<path d="M15.6615 32.1489H13.7674V16.8903H15.6615V18.509H15.7476C15.8768 18.3075 16.0812 18.0917 16.3611 17.8615C16.6122 17.6601 16.8812 17.4766 17.1682 17.3112C17.4767 17.1385 17.8785 16.991 18.3736 16.8687C18.8758 16.7392 19.3816 16.6745 19.8911 16.6745C21.5197 16.6745 22.8829 17.1925 23.9807 18.2284C25.0713 19.2787 25.6165 20.6384 25.6165 22.3074C25.6165 23.9909 25.0713 25.3505 23.9807 26.3865C22.8829 27.4224 21.5197 27.9404 19.8911 27.9404C18.7718 27.9404 17.8606 27.7246 17.1575 27.2929C16.5404 26.9116 16.1207 26.5843 15.8983 26.3109L15.7476 26.1059H15.6615V32.1489ZM22.5924 25.0808C23.317 24.3542 23.6793 23.4297 23.6793 22.3074C23.6793 21.1996 23.317 20.2751 22.5924 19.5341C21.8534 18.8075 20.8776 18.4442 19.665 18.4442C18.4453 18.4442 17.4731 18.8075 16.7485 19.5341C16.0238 20.2751 15.6615 21.1996 15.6615 22.3074C15.6615 23.4585 16.0346 24.3901 16.7808 25.1023C17.5198 25.8217 18.4812 26.1814 19.665 26.1814C20.8848 26.1814 21.8605 25.8145 22.5924 25.0808Z" stroke="#4C4A5D" stroke-width="0.197857"/>
<path d="M29.7277 26.3973C28.6084 25.3685 28.0488 24.0052 28.0488 22.3074C28.0488 20.6168 28.6084 19.2536 29.7277 18.2176C30.8398 17.1889 32.2568 16.6745 33.9788 16.6745C35.6864 16.6745 37.1034 17.1889 38.2298 18.2176C39.3419 19.2536 39.898 20.6168 39.898 22.3074C39.898 24.0052 39.3419 25.3685 38.2298 26.3973C37.1034 27.426 35.6864 27.9404 33.9788 27.9404C32.2568 27.9404 30.8398 27.426 29.7277 26.3973ZM36.8738 25.0915C37.5984 24.3649 37.9608 23.4369 37.9608 22.3074C37.9608 21.178 37.5984 20.2499 36.8738 19.5233C36.1491 18.8039 35.1841 18.4442 33.9788 18.4442C32.7662 18.4442 31.8012 18.8039 31.0837 19.5233C30.3519 20.2427 29.986 21.1708 29.986 22.3074C29.986 23.4441 30.3519 24.3721 31.0837 25.0915C31.8084 25.8181 32.7734 26.1814 33.9788 26.1814C35.1698 26.1814 36.1348 25.8181 36.8738 25.0915Z" stroke="#4C4A5D" stroke-width="0.197857"/>
<path d="M79.6965 27.7246H77.1889L71.1083 22.329V27.7246H69.2142V16.8903H71.1083V22.1779L76.8123 16.8903H79.2876L73.5083 22.2211L79.6965 27.7246Z" stroke="#4C4A5D" stroke-width="0.197857"/>
<path d="M83.2481 32.1489H81.3539V16.8903H83.2481V18.509H83.3342C83.4633 18.3075 83.6678 18.0917 83.9476 17.8615C84.1987 17.6601 84.4678 17.4766 84.7548 17.3112C85.0633 17.1385 85.4651 16.991 85.9601 16.8687C86.4624 16.7392 86.9682 16.6745 87.4776 16.6745C89.1063 16.6745 90.4695 17.1925 91.5672 18.2284C92.6578 19.2787 93.2031 20.6384 93.2031 22.3074C93.2031 23.9909 92.6578 25.3505 91.5672 26.3865C90.4695 27.4224 89.1063 27.9404 87.4776 27.9404C86.3583 27.9404 85.4471 27.7246 84.744 27.2929C84.127 26.9116 83.7072 26.5843 83.4848 26.3109L83.3342 26.1059H83.2481V32.1489ZM90.1789 25.0808C90.9036 24.3542 91.2659 23.4297 91.2659 22.3074C91.2659 21.1996 90.9036 20.2751 90.1789 19.5341C89.4399 18.8075 88.4641 18.4442 87.2516 18.4442C86.0319 18.4442 85.0597 18.8075 84.335 19.5341C83.6104 20.2751 83.2481 21.1996 83.2481 22.3074C83.2481 23.4585 83.6211 24.3901 84.3673 25.1023C85.1063 25.8217 86.0678 26.1814 87.2516 26.1814C88.4713 26.1814 89.4471 25.8145 90.1789 25.0808Z" stroke="#4C4A5D" stroke-width="0.197857"/>
<path d="M95.6353 24.6923C95.6353 23.5844 96.1053 22.7643 97.0452 22.2319C97.9779 21.7067 99.1761 21.4442 100.64 21.4442C101.386 21.4442 102.075 21.5341 102.706 21.7139C103.366 21.901 103.829 22.0772 104.094 22.2427L104.514 22.5125V20.8075C104.514 20.0737 104.245 19.4982 103.707 19.0809C103.169 18.6565 102.358 18.4442 101.275 18.4442C99.1151 18.4442 98.0353 19.0341 98.0353 20.214H96.1412C96.1483 19.0198 96.6326 18.1313 97.5941 17.5486C98.5483 16.9659 99.7752 16.6745 101.275 16.6745C102.781 16.6745 104.012 17.027 104.966 17.732C105.92 18.4442 106.401 19.4694 106.408 20.8075V24.7462C106.408 25.293 106.48 25.6743 106.624 25.8901C106.767 26.0987 107.004 26.203 107.334 26.203C107.621 26.203 107.811 26.1635 107.904 26.0843L107.947 26.0627V27.7677C107.725 27.8828 107.402 27.9404 106.979 27.9404C106.261 27.9404 105.73 27.7857 105.386 27.4764C105.113 27.2462 104.912 27.0052 104.783 26.7534L104.729 26.6239H104.643C104.464 26.8037 104.281 26.9548 104.094 27.0771C103.872 27.2282 103.628 27.3613 103.363 27.4764C102.659 27.7857 101.802 27.9404 100.79 27.9404C99.2622 27.9404 98.021 27.6778 97.0667 27.1526C96.1125 26.6347 95.6353 25.8145 95.6353 24.6923ZM101.07 23.2139C98.7384 23.2139 97.5725 23.7067 97.5725 24.6923C97.5725 25.6851 98.7384 26.1814 101.07 26.1814C101.759 26.1814 102.387 26.1059 102.954 25.9548C103.513 25.8181 103.897 25.6887 104.105 25.5664C104.299 25.4656 104.435 25.3757 104.514 25.2966V24.0556C104.435 23.9765 104.299 23.8865 104.105 23.7858C103.861 23.6707 103.481 23.5484 102.964 23.4189C102.412 23.2822 101.781 23.2139 101.07 23.2139Z" stroke="#4C4A5D" stroke-width="0.197857"/>
<path d="M111.284 26.3757C110.164 25.3469 109.605 23.9837 109.605 22.2859C109.605 20.5881 110.164 19.2284 111.284 18.2068C112.388 17.1853 113.805 16.6745 115.535 16.6745C116.518 16.6745 117.396 16.84 118.171 17.1709C118.968 17.509 119.57 17.9155 119.979 18.3903C120.833 19.3759 121.26 20.2787 121.26 21.0988H119.301C119.23 20.7895 119.108 20.4837 118.935 20.1816C118.756 19.8723 118.548 19.6025 118.311 19.3723C118.039 19.1133 117.655 18.8939 117.16 18.714C116.672 18.5342 116.13 18.4442 115.535 18.4442C114.322 18.4442 113.357 18.8039 112.64 19.5233C111.908 20.2427 111.542 21.1636 111.542 22.2859C111.542 23.4081 111.908 24.3326 112.64 25.0592C113.364 25.793 114.329 26.1599 115.535 26.1599C116.137 26.1599 116.683 26.0699 117.17 25.8901C117.666 25.7102 118.046 25.4836 118.311 25.2102C118.806 24.6995 119.115 24.2247 119.237 23.7858L119.301 23.5053H121.26C121.26 24.311 120.833 25.2066 119.979 26.1922C119.556 26.6814 118.953 27.0915 118.171 27.4224C117.396 27.7533 116.518 27.9188 115.535 27.9188C113.813 27.9188 112.396 27.4044 111.284 26.3757Z" stroke="#4C4A5D" stroke-width="0.197857"/>
<path d="M134.681 27.7246H132.776V19.0593H132.733L126.523 27.7246H124.123V16.8903H126.017V25.5556H126.06L132.27 16.8903H134.681V27.7246Z" stroke="#4C4A5D" stroke-width="0.197857"/>
<path d="M147.638 19.7931C147.638 20.1456 147.581 20.4694 147.466 20.7643C147.351 21.0521 147.208 21.2679 147.036 21.4118C146.655 21.7211 146.332 21.8938 146.067 21.9298L145.895 21.9837V22.0916C146.06 22.0916 146.343 22.1636 146.745 22.3074C147.018 22.4082 147.269 22.5448 147.498 22.7175C147.735 22.9117 147.932 23.1815 148.09 23.5268C148.255 23.865 148.338 24.2462 148.338 24.6707C148.338 25.7066 147.975 26.4764 147.251 26.98C146.526 27.4764 145.421 27.7246 143.936 27.7246H137.985V16.8903H143.473C144.786 16.8903 145.809 17.1385 146.54 17.6349C147.272 18.1313 147.638 18.8507 147.638 19.7931ZM146.401 24.5412C146.401 23.5412 145.579 23.0412 143.936 23.0412H139.879V26.0627H143.936C145.579 26.0627 146.401 25.5556 146.401 24.5412ZM145.69 19.9874C145.69 19.0305 144.951 18.5521 143.473 18.5521H139.879V21.4657H143.689C144.341 21.4514 144.836 21.3111 145.174 21.0449C145.518 20.7787 145.69 20.4262 145.69 19.9874Z" stroke="#4C4A5D" stroke-width="0.197857"/>
<path d="M152.438 26.3973C151.319 25.3685 150.759 24.0052 150.759 22.3074C150.759 20.6168 151.319 19.2536 152.438 18.2176C153.55 17.1889 154.967 16.6745 156.689 16.6745C158.397 16.6745 159.814 17.1889 160.94 18.2176C162.052 19.2536 162.608 20.6168 162.608 22.3074C162.608 24.0052 162.052 25.3685 160.94 26.3973C159.814 27.426 158.397 27.9404 156.689 27.9404C154.967 27.9404 153.55 27.426 152.438 26.3973ZM159.584 25.0915C160.309 24.3649 160.671 23.4369 160.671 22.3074C160.671 21.178 160.309 20.2499 159.584 19.5233C158.86 18.8039 157.895 18.4442 156.689 18.4442C155.477 18.4442 154.512 18.8039 153.794 19.5233C153.062 20.2427 152.696 21.1708 152.696 22.3074C152.696 23.4441 153.062 24.3721 153.794 25.0915C154.519 25.8181 155.484 26.1814 156.689 26.1814C157.88 26.1814 158.845 25.8181 159.584 25.0915Z" stroke="#4C4A5D" stroke-width="0.197857"/>
<path d="M176.901 22.3074L176.836 23.2139H167.075C167.075 23.8326 167.441 24.4801 168.172 25.1563C168.897 25.8397 169.869 26.1814 171.089 26.1814C171.986 26.1814 172.721 26.0124 173.295 25.6743C173.769 25.3865 174.099 25.1275 174.285 24.8973L174.372 24.7462H176.599C176.556 24.8541 176.51 24.9656 176.459 25.0808C176.366 25.2462 176.19 25.5016 175.932 25.8469C175.652 26.2138 175.326 26.5411 174.953 26.8289C174.594 27.1095 174.067 27.3649 173.371 27.5951C172.711 27.8253 171.95 27.9404 171.089 27.9404C169.303 27.9404 167.853 27.4296 166.741 26.4081C165.615 25.3865 165.051 24.0196 165.051 22.3074C165.051 20.6096 165.611 19.2464 166.73 18.2176C167.842 17.1889 169.259 16.6745 170.981 16.6745C172.689 16.6745 174.106 17.1889 175.232 18.2176C176.345 19.2464 176.901 20.6096 176.901 22.3074ZM173.844 19.4694C173.127 18.786 172.172 18.4442 170.981 18.4442C169.776 18.4442 168.822 18.786 168.119 19.4694C167.408 20.1528 167.053 20.8255 167.053 21.4873H174.899C174.899 20.8255 174.547 20.1528 173.844 19.4694Z" stroke="#4C4A5D" stroke-width="0.197857"/>
<path fill-rule="evenodd" clip-rule="evenodd" d="M54.41 24.3573L53.4754 25.7086C53.4754 25.7086 53.2677 25.1889 53.06 24.7731C52.8523 24.3573 52.5408 23.9415 52.2293 23.4217C51.9178 22.902 51.5024 22.1743 51.1909 21.6546C50.8794 21.1348 50.6717 20.719 50.5679 20.1993C50.464 19.6795 50.3602 18.8479 50.2563 17.8084C50.1525 16.7689 50.0487 15.4175 49.9448 14.1701C49.841 12.9227 49.6333 11.6753 49.3218 10.22C49.1141 8.76473 48.6987 7.20548 48.3872 5.85413C48.0757 4.50278 47.7642 3.35933 47.3488 2.52773C47.0373 1.69612 46.6219 0.968473 46.3104 0.552672C45.9989 0.136872 45.7912 0.0329214 45.5835 0.136872C45.3759 0.136872 45.272 0.344772 45.1682 0.760572C45.0643 1.17637 44.9605 1.90402 44.9605 2.83958C44.9605 3.77513 44.9605 5.12648 45.1682 6.47783C45.3759 7.82918 45.6874 9.38844 45.9989 10.9477C46.4143 12.5069 46.8296 13.9622 47.3488 15.2096C47.868 16.457 48.2834 17.4965 48.5949 18.1202C48.8026 18.7439 48.8026 18.8479 48.8026 20.3032C48.8026 21.7585 48.8026 24.6691 48.6987 26.956C48.5949 29.2429 48.4911 30.8022 48.1795 32.5693C47.868 34.3365 47.3488 36.3115 46.9335 37.8708C46.4143 39.534 45.9989 40.8853 45.6874 41.613C45.4797 42.3406 45.4797 42.5485 45.6874 42.9643C45.8951 43.3801 46.3104 43.8999 46.5181 44.1078C46.7258 44.4196 46.8296 44.4196 47.1411 43.588C47.4527 42.8604 48.0757 41.3011 48.5949 39.8458C49.2179 38.3905 49.7371 36.9352 50.464 35.4799C51.1909 34.0246 51.9178 32.4654 52.6447 31.3219C53.3715 30.0745 53.8908 29.139 54.2023 28.7232C54.5138 28.3074 54.6176 28.3074 54.7215 28.4113C54.8253 28.5153 54.9292 28.7232 55.2407 29.139C55.5522 29.5548 55.9676 30.0745 56.5906 30.6982C57.2136 31.3219 57.8367 32.0496 59.0828 33.0891C60.3288 34.1286 62.0941 35.5839 63.6517 36.6234C65.2093 37.6629 66.4554 38.3905 68.013 39.0142C69.5706 39.6379 71.5436 40.2616 73.5165 40.6774C75.4895 41.0932 77.5663 41.1972 79.2278 41.1972C80.8892 41.1972 82.0314 40.9893 83.1737 40.6774C84.3159 40.3656 85.562 40.0537 86.9119 39.3261C88.2619 38.7024 89.6118 37.5589 91.1694 36.7273C108.926 27.1639 107.368 32.3614 126.475 38.9103C134.678 41.7169 142.882 43.3801 151.397 41.8209C153.162 41.509 153.266 41.4051 153.266 41.3011C153.266 41.1972 153.266 41.0932 153.162 40.7814C153.058 40.4695 152.747 39.9498 152.643 39.6379C152.435 39.3261 152.435 39.2221 149.424 39.43C146.516 39.7419 144.647 40.0537 139.455 39.534C134.159 39.1182 129.486 37.5589 125.333 35.5839C92.4155 20.719 100.1 37.351 77.2548 38.4945C75.178 38.5984 73.5166 38.4945 71.4398 37.9747C69.3629 37.455 66.9746 36.5194 65.1055 35.5839C63.2364 34.6483 61.6788 33.5049 60.3288 32.3614C58.8751 31.218 57.5252 29.9706 56.7983 29.139C55.9676 28.3074 55.656 27.9955 55.5522 27.6837C55.4484 27.4758 55.4484 27.2679 56.1752 26.0205C57.006 24.7731 58.5636 22.4862 60.6404 20.0953C62.6133 17.7045 65.1055 15.2096 67.1823 13.3385C69.2591 11.4674 71.0244 10.1161 72.8935 8.76473C74.6588 7.51733 79.747 3.98303 80.5777 3.25538C81.4084 2.52773 81.2007 2.31982 80.8892 1.90402C80.5777 1.48822 80.0585 0.968473 79.8508 0.760572C79.5393 0.552672 79.4354 0.656622 78.1894 1.48822C76.9433 2.31982 71.4397 6.26993 69.2591 8.03708C67.0785 9.80424 65.1055 11.6753 63.2364 13.6504C61.3672 15.6254 59.4981 17.6005 57.9405 19.5756C56.3829 21.5506 54.41 24.3573 54.41 24.3573ZM50.464 23.2138C50.464 23.9415 50.464 25.2928 50.464 26.3323C50.464 27.3718 50.464 28.6192 50.464 28.6192L50.4759 30.4871L52.0216 28.0995L52.6447 26.956C52.6447 26.956 52.8524 26.5402 52.7485 26.3323C52.7485 26.3323 51.9178 24.7731 51.7101 24.3573C51.5024 23.9415 50.464 22.3822 50.464 22.3822C50.464 22.3822 50.464 22.4862 50.464 23.2138ZM48.4911 14.482C48.4911 13.8583 48.3872 12.5069 48.2834 11.3635C48.1795 10.22 47.9719 9.28448 47.7642 8.34893C47.5565 7.41338 47.4527 6.58178 47.245 5.85413C47.0373 5.02253 46.8296 4.29488 46.7258 3.98303C46.6219 3.56723 46.5181 3.56723 46.5181 3.87908C46.5181 4.19093 46.5181 4.81463 46.6219 5.85413C46.7258 6.89363 46.8296 8.24498 47.0373 9.38844C47.245 10.5319 47.4527 11.4674 47.6603 12.1951C47.868 12.9227 47.9719 13.4425 48.0757 13.8583C48.1795 14.2741 48.2834 14.5859 48.3872 14.7938C48.4911 15.0017 48.5949 15.1057 48.5949 14.482H48.4911Z" stroke="#4C4A5D" stroke-width="0.197857"/>
</svg>
